{"title":"The White Countess [2005] DVDRip XviD - CODY","uid":8422275,"size":1499718389,"categoryP":"video","categoryS":"movies","magnet":"?xt=urn:btih:f0516b08c6771597d9a9032e6a22a72f14d977f4&amp;dn=The+White+Countess+%5B2005%5D+DVDRip+XviD+-+CODY&amp;tr=udp%3A%2F%2Ftracker.openbittorrent.com%3A80&amp;tr=udp%3A%2F%2Fopen.demonii.com%3A1337&amp;tr=udp%3A%2F%2Ftracker.coppersurfer.tk%3A6969&amp;tr=udp%3A%2F%2Fexodus.desync.com%3A6969","seeders":0,"leechers":1,"uploader":"CODYBOSS1969","files":5,"time":1367233690,"description":"General\nComplete name                            : The White Countess [2005] DVDRip XviD - CODY.avi\nFormat                                   : AVI\nFormat/Info                              : Audio Video Interleave\nFormat profile                           : OpenDML\nFormat settings                          : rec\nFile size                                : 1.40 GiB\nDuration                                 : 2h 10mn\nOverall bit rate                         : 1 537 Kbps\nWriting application                      : AVI-Mux GUI 1.17.8, Aug 30 2008  12:36:58\n\nVideo\nID                                       : 0\nFormat                                   : MPEG-4 Visual\nFormat profile                           : Advanced Simple@L5\nFormat settings, BVOP                    : 4\nFormat settings, QPel                    : No\nFormat settings, GMC                     : No warppoints\nFormat settings, Matrix                  : Default (H.263)\nCodec ID                                 : XVID\nCodec ID/Hint                            : XviD\nDuration                                 : 2h 10mn\nBit rate                                 : 1 400 Kbps\nWidth                                    : 720 pixels\nHeight                                   : 432 pixels\nDisplay aspect ratio                     : 1.660\nFrame rate                               : 25.000 fps\nColor space                              : YUV\nChroma subsampling                       : 4:2:0\nBit depth                                : 8 bits\nScan type                                : Progressive\nCompression mode                         : Lossy\nBits/(Pixel*Frame)                       : 0.180***\nStream size                              : 1.27 GiB (91%)\nWriting library                          : XviD 65\n\nAudio\nID                                       : 1\nFormat                                   : MPEG Audio\nFormat version                           : Version 1\nFormat profile                           : Layer 3\nCodec ID                                 : 55\nCodec ID/Hint                            : MP3\nDuration                                 : 2h 10mn\nBit rate mode                            : Constant\nBit rate                                 : 128 Kbps\nChannel(s)                               : 2 channels\nSampling rate                            : 48.0 KHz\nCompression mode                         : Lossy\nStream size                              : 119 MiB (8%)\nAlignment                                : Aligned on interleaves\nInterleave, duration                     : 24 ms (0.60 video frame)\nInterleave, preload duration             : 4008 ms\nWriting library                          : LAME3.99r\nEncoding settings                        : -m s -V 4 -q 2 -lowpass 17 -b 128\n\nAudio language                           : English, French [short parts] \n                                           Mandarin [few parts]\n\nIMDB link:                                &lt;a href=&quot; http://www.imdb.com/title/tt0384686/&quot; rel=&quot;nofollow&quot; target=&quot;_NEW&quot;&gt; http://www.imdb.com/title/tt0384686/&lt;/a&gt;\n\nSubtitles included                       : Romanian\n\nPlease seed at least 1,5:1 . This way this torrent has a chance to survive !\n\nThanks . Enjoy !!\t\n_______________________________\n\n*** From the source I've got, this the best result at this size\t","torrent":{"xt":"urn:btih:f0516b08c6771597d9a9032e6a22a72f14d977f4","amp;dn":"The+White+Countess+%5B2005%5D+DVDRip+XviD+-+CODY","amp;tr":["udp%3A%2F%2Ftracker.openbittorrent.com%3A80","udp%3A%2F%2Fopen.demonii.com%3A1337","udp%3A%2F%2Ftracker.coppersurfer.tk%3A6969","udp%3A%2F%2Fexodus.desync.com%3A6969"],"infoHash":"f0516b08c6771597d9a9032e6a22a72f14d977f4","infoHashBuffer":{"type":"Buffer","data":[240,81,107,8,198,119,21,151,217,169,3,46,106,34,167,47,20,217,119,244]},"announce":[],"urlList":[]}}